<?xml version="1.0" standalone="no"?>
<!DOCTYPE svg PUBLIC "-//W3C//DTD SVG 1.1//EN" "http://www.w3.org/Graphics/SVG/1.1/DTD/svg11.dtd" >
<svg xmlns="http://www.w3.org/2000/svg">
    <metadata>Generated by IcoMoon</metadata>
    <defs>
        <font id="icomoon" horiz-adv-x="1024">
            <font-face units-per-em="1024" ascent="960" descent="-64"/>
            <missing-glyph horiz-adv-x="1024"/>
            <glyph unicode="&#x20;" horiz-adv-x="512" d=""/>
            <glyph unicode="&#xe900;" glyph-name="date-icon" horiz-adv-x="922"
                   d="M307.196 499.206h-102.412v-102.412h102.412zM511.981 499.206h-102.373v-102.412h102.412zM716.765 499.206h-102.373v-102.412h102.412zM819.177 857.588h-51.187v102.412h-102.412v-102.412h-409.569v102.412h-102.412v-102.412h-51.187c-56.29-0.021-101.913-45.658-101.913-101.951 0-0.149 0-0.297 0.001-0.445v0.023l-0.499-716.804c0-0.011 0-0.025 0-0.038 0-56.539 45.834-102.373 102.373-102.373 0.014 0 0.027 0 0.041 0h716.763c56.49 0.174 102.237 45.921 102.411 102.395v716.821c-0.196 56.474-45.935 102.199-102.395 102.373h-0.017zM819.177 38.412h-716.765v563.206h716.765z"/>
            <glyph unicode="&#xe901;" glyph-name="icon-angle-down" horiz-adv-x="1658"
                   d="M194.85 960l-194.85-194.85 829.15-829.15 829.15 829.15-194.85 194.85-634.3-632.918z"/>
            <glyph unicode="&#xe903;" glyph-name="icon-clock"
                   d="M511.59 874.701c-235.434-0.263-426.189-191.179-426.189-426.649 0-235.632 191.018-426.65 426.65-426.65s426.65 191.018 426.65 426.65v0c0 0.061 0 0.133 0 0.205 0 235.519-190.926 426.445-426.445 426.445-0.234 0-0.468 0-0.702-0.001h0.036zM512 106.701c-188.523 0-341.35 152.828-341.35 341.35s152.828 341.35 341.35 341.35c188.523 0 341.35-152.828 341.35-341.35v0c0-0.030 0-0.066 0-0.102 0-188.466-152.782-341.248-341.248-341.248-0.036 0-0.072 0-0.108 0h0.006zM533.35 661.299h-64v-256l224-134.4 32 52.48-192 113.92z"/>
            <glyph unicode="&#xe904;" glyph-name="icon-close"
                   d="M810.688 686.496l-60.16 60.16-238.528-238.496-238.496 238.496-60.16-60.16 238.496-238.496-238.496-238.528 60.16-60.16 238.496 238.496 238.496-238.496 60.16 60.16-238.496 238.528z"/>
            <glyph unicode="&#xe905;" glyph-name="icon-dark" horiz-adv-x="666"
                   d="M0 448.026c0-0.009 0-0.020 0-0.031 0-282.756 229.219-511.974 511.974-511.974 54.847 0 107.68 8.625 157.216 24.591l-3.624-1.009c-209.472 67.351-358.4 260.483-358.4 488.398s148.927 421.046 354.776 487.389l3.624 1.009c-45.913 14.957-98.745 23.582-153.592 23.582-282.749 0-511.963-229.208-511.974-511.954v-0.001z"/>
            <glyph unicode="&#xe906;"
                   d="M508.365-56.73c280.762 0 508.365 227.603 508.365 508.365s-227.603 508.365-508.365 508.365c-280.762 0-508.365-227.603-508.365-508.365v0c0-280.762 227.603-508.365 508.365-508.365v0z"/>
            <glyph unicode="&#xe907;"
                   d="M636.16 431.718h-90.726v-332.339h-137.421v332.339h-65.382v116.787h65.382v75.622c-0.257 3.049-0.403 6.598-0.403 10.182 0 71.173 57.697 128.87 128.87 128.87 3.584 0 7.133-0.146 10.643-0.433l-0.461 0.030 101.786-0.41v-113.357h-73.882c-0.435 0.024-0.943 0.038-1.455 0.038-15.439 0-27.955-12.516-27.955-27.955 0-1.386 0.101-2.749 0.296-4.081l-0.018 0.151v-68.762h102.707z"/>
            <glyph unicode="&#xe909;" glyph-name="icon-Instagram"
                   d="M664.63 205.682h-305.259c-48.795 0.029-88.347 39.563-88.405 88.348v305.214c0.058 48.791 39.61 88.325 88.402 88.354h305.16c48.773-0.058 88.295-39.581 88.354-88.348v-305.213c-0.058-48.737-39.522-88.237-88.24-88.354h-0.011zM512 605.25c-87.612 0-158.636-71.024-158.636-158.636s71.024-158.636 158.636-158.636c87.612 0 158.636 71.024 158.636 158.636v0c-0.088 87.577-71.059 158.549-158.628 158.636h-0.009zM675.77 647.502c-20.704-0.029-37.477-16.82-37.477-37.528 0-20.726 16.802-37.529 37.529-37.529s37.529 16.802 37.529 37.529v0c-0.029 20.733-16.843 37.529-37.58 37.529-0.018 0-0.036 0-0.054 0h0.003zM512 538.202c-50.561-0.029-91.537-41.023-91.537-91.588 0-50.583 41.005-91.588 91.588-91.588s91.588 41.005 91.588 91.588v0c-0.088 50.566-41.070 91.53-91.634 91.588h-0.006zM512-64c-282.77 0-512 229.23-512 512s229.23 512 512 512c282.77 0 512-229.23 512-512v0c-0.321-282.641-229.359-511.679-511.969-512h-0.031zM359.37 754.646c-85.769-0.117-155.263-69.629-155.351-155.394v-305.216c0.058-85.795 69.564-155.336 155.34-155.453h305.168c85.791 0.088 155.314 69.611 155.402 155.394v305.267c-0.088 85.755-69.553 155.256-155.285 155.402h-0.014z"/>
            <glyph unicode="&#xe90a;" glyph-name="icon-light" horiz-adv-x="1029"
                   d="M119.233 118.824l65.929-65.929 84.164 83.697-66.396 66.396zM467.58-64h93.516v137.936h-93.516zM514.338 728.548c-154.942 0-280.548-125.606-280.548-280.548s125.606-280.548 280.548-280.548c154.942 0 280.548 125.606 280.548 280.548v0c0 154.942-125.606 280.548-280.548 280.548v0zM888.402 401.242h140.274v93.516h-140.274zM759.35 136.592l84.164-83.697 65.929 65.929-83.697 84.164zM909.443 777.176l-65.929 65.929-84.164-83.697 66.396-66.396zM561.096 960h-93.516v-137.936h93.516zM140.274 494.758h-140.274v-93.516h140.274zM269.326 759.408l-84.164 83.697-65.929-65.929 83.697-84.164z"/>
            <glyph unicode="&#xe90b;" glyph-name="icon-search"
                   d="M731.847 315.975h-46.253l-16.393 15.808c57.13 66.262 91.923 153.187 91.923 248.239 0 210.501-170.645 381.146-381.146 381.146s-381.146-170.645-381.146-381.146c0-210.501 170.645-381.146 381.146-381.146 95.051 0 181.976 34.794 248.733 92.34l-0.494-0.417 15.808-16.393v-46.253l292.739-292.153 87.236 87.236-292.153 292.739zM380.56 315.975c-145.508 0-263.465 117.957-263.465 263.465s117.957 263.465 263.465 263.465c145.508 0 263.465-117.957 263.465-263.465v0c0-0.105 0-0.228 0-0.352 0-145.314-117.8-263.114-263.114-263.114-0.124 0-0.247 0-0.371 0h0.019z"/>
            <glyph unicode="&#xe90c;"
                   d="M508.365-56.73c280.762 0 508.365 227.603 508.365 508.365s-227.603 508.365-508.365 508.365c-280.762 0-508.365-227.603-508.365-508.365v0c0-280.762 227.603-508.365 508.365-508.365v0z"/>
            <glyph unicode="&#xe90d;"
                   d="M848.282 595.814c-20.323-9.253-43.898-15.978-68.621-18.982l-1.164-0.115c25.116 15.222 43.997 38.584 53.156 66.364l0.246 0.861c-22.209-13.415-48.059-23.647-75.597-29.227l-1.561-0.264c-22.22 23.497-53.612 38.122-88.42 38.122-67.158 0-121.6-54.442-121.6-121.6 0-9.706 1.137-19.147 3.286-28.196l-0.165 0.826c-101.294 5.169-190.405 53.287-250.135 126.359l-0.489 0.617c-10.311-17.491-16.402-38.537-16.402-61.005 0-41.956 21.24-78.952 53.554-100.82l0.429-0.274c-20.319 0.693-39.185 6.305-55.635 15.672l0.595-0.312c0-0.512 0-1.024 0-1.536 0-58.549 41.379-107.433 96.488-119.003l0.792-0.139c-9.607-2.72-20.64-4.283-32.039-4.283-7.934 0-15.692 0.758-23.204 2.205l0.766-0.123c15.912-48.689 60.429-83.452 113.226-84.58l0.131-0.002c-41.020-32.429-93.489-52.020-150.533-52.020-0.142 0-0.285 0-0.427 0h0.022c-0.081 0-0.177 0-0.273 0-10.116 0-20.089 0.614-29.883 1.807l1.177-0.117c52.509-34.193 116.764-54.528 185.769-54.528 0.175 0 0.349 0 0.524 0h-0.027c0.687-0.005 1.499-0.008 2.312-0.008 189.654 0 343.398 153.745 343.398 343.398 0 0.813-0.003 1.625-0.008 2.436l0.001-0.125c0 5.12 0 10.496-0.358 15.718 23.878 17.378 43.994 38.211 60.065 62.001l0.555 0.872z"/>
            <glyph unicode="&#xe90e;" glyph-name="icon-user-hear" horiz-adv-x="1186"
                   d="M431.189 798.312c119.040-0.016 215.534-96.52 215.534-215.562 0-119.052-96.51-215.562-215.562-215.562s-215.562 96.51-215.562 215.562c0 59.533 24.133 113.429 63.15 152.439v0c39.008 39.001 92.893 63.123 152.412 63.123 0.010 0 0.019 0 0.029 0h-0.001zM431.189 259.375c143.902 0 431.189-72.242 431.189-215.562v-107.813h-862.377v107.749c0 143.385 287.287 215.627 431.189 215.627zM849.377 778.91c50.444-49.993 81.675-119.3 81.675-195.901s-31.231-145.907-81.655-195.881l-0.020-0.020-90.545 91.062c21.231 29.036 33.97 65.45 33.97 104.838s-12.739 75.802-34.323 105.345l0.353-0.507zM1027.816 960c97.723-96.016 158.283-229.576 158.283-377.282s-60.561-281.267-158.207-377.207l-0.077-0.075-87.829 87.829c69.44 76.1 111.973 177.794 111.973 289.421s-42.533 213.321-112.277 289.758l0.304-0.337z"/>
            <glyph unicode="&#xe90f;" horiz-adv-x="4760"
                   d="M671.782 837.019h-568.431c-57.079 0-103.351-45.839-103.351-102.384v-563.111c0-56.544 46.272-102.383 103.351-102.383h568.431c57.079 0 103.35 45.839 103.35 102.383v563.111c0 56.545-46.272 102.384-103.35 102.384z"/>
            <glyph unicode="&#xe910;" horiz-adv-x="4760"
                   d="M314.607 375.656l26.364 26.116c2.423-0.85 4.955-1.367 7.523-1.538 6.095 0 12.051 1.79 17.12 5.145 5.067 3.355 9.017 8.122 11.347 13.701 2.332 5.577 2.943 11.715 1.754 17.636-1.189 5.922-4.123 11.361-8.433 15.631s-9.8 7.176-15.777 8.353-12.174 0.575-17.804-1.737c-5.63-2.31-10.443-6.222-13.83-11.243-3.385-5.019-5.192-10.921-5.192-16.959 0.171-2.543 0.694-5.050 1.553-7.452l-26.364-26.116-112.456 111.369c-1.636 1.682-3.643 2.964-5.864 3.749-2.221 0.783-4.594 1.045-6.935 0.768-2.34-0.279-4.584-1.090-6.554-2.372s-3.614-2.998-4.802-5.016c-20.089-37.059-27.595-79.542-21.405-121.158 6.19-41.614 25.745-80.149 55.771-109.892 30.024-29.743 68.921-49.116 110.93-55.249 42.009-6.131 84.893 1.305 122.304 21.204 2.052 1.162 3.802 2.784 5.109 4.737 1.307 1.951 2.135 4.179 2.416 6.506 0.283 2.325 0.009 4.684-0.793 6.887-0.804 2.202-2.116 4.189-3.834 5.799l-112.147 111.131zM334.034 705.494c-2.097 0.116-4.197-0.192-6.171-0.905-1.972-0.713-3.779-1.815-5.31-3.241s-2.752-3.146-3.59-5.054c-0.838-1.91-1.274-3.965-1.286-6.047v-30.013c-0.025-3.88 1.46-7.621 4.147-10.447 2.685-2.825 6.364-4.521 10.276-4.731 60.407-3.614 117.377-29.055 160.114-71.5s68.274-98.945 71.771-158.796c0.245-3.863 1.965-7.488 4.811-10.143 2.844-2.653 6.603-4.136 10.509-4.145h31.058c2.099 0.011 4.176 0.446 6.102 1.276s3.662 2.039 5.101 3.556c1.439 1.515 2.552 3.305 3.273 5.26 0.719 1.955 1.030 4.033 0.912 6.112-4.134 75.298-36.202 146.428-90.044 199.735s-125.664 85.032-201.675 89.082z"/>
            <glyph unicode="&#xe911;" horiz-adv-x="4760"
                   d="M334.315 613.949c-2.13 0.155-4.27-0.125-6.284-0.827-2.016-0.702-3.863-1.807-5.427-3.246-1.564-1.441-2.812-3.186-3.664-5.126-0.853-1.94-1.293-4.033-1.291-6.15v-30.764c-0.002-3.848 1.468-7.551 4.111-10.367 2.645-2.816 6.267-4.534 10.139-4.811 35.958-3.18 69.638-18.794 95.139-44.108 25.503-25.314 41.199-58.709 44.337-94.337 0.326-3.808 2.080-7.358 4.915-9.952s6.546-4.043 10.405-4.064h31.056c2.133 0.009 4.242 0.451 6.195 1.301 1.953 0.848 3.711 2.084 5.162 3.631 1.453 1.547 2.569 3.374 3.281 5.365s1.003 4.107 0.857 6.214c-4.032 50.929-26.273 98.761-62.728 134.893s-84.727 58.192-136.135 62.21l-0.068 0.137z"/>
            <glyph unicode="&#xe912;" horiz-adv-x="4760"
                   d="M1526.367 526.431c0-27.762-6.372-53.248-19.115-76.459-12.743-22.756-32.313-41.188-58.709-55.296s-59.164-21.163-98.304-21.163h-72.363v-172.032h-116.736v479.232h189.099c38.229 0 70.542-6.599 96.939-19.797s46.194-31.403 59.392-54.613c13.198-23.211 19.797-49.835 19.797-79.872zM1341.364 466.356c22.3 0 38.912 5.234 49.835 15.701s16.384 25.259 16.384 44.373c0 19.115-5.461 33.906-16.384 44.373s-27.534 15.701-49.835 15.701h-63.488v-120.149h63.488zM1571.438 295.007c15.474 12.288 22.528 17.977 21.163 17.067 44.601 36.864 79.644 67.129 105.131 90.795 25.941 23.666 47.787 48.469 65.536 74.411s26.624 51.2 26.624 75.776c0 18.66-4.324 33.223-12.971 43.691s-21.618 15.701-38.912 15.701c-17.294 0-30.948-6.599-40.96-19.797-9.557-12.743-14.336-30.948-14.336-54.613h-112.64c0.91 38.684 9.102 70.997 24.576 96.939 15.929 25.941 36.636 45.056 62.123 57.344 25.941 12.288 54.613 18.432 86.016 18.432 54.158 0 94.891-13.881 122.197-41.643 27.762-27.762 41.646-63.943 41.646-108.544 0-48.697-16.615-93.98-49.838-135.851-33.223-41.415-75.548-81.92-126.976-121.515h184.324v-94.891h-342.702v86.699zM1965.53 457.481c0 78.279 15.019 139.947 45.056 185.003 30.492 45.056 79.417 67.584 146.773 67.584s116.053-22.528 146.091-67.584c30.492-45.056 45.739-106.724 45.739-185.003 0-79.189-15.246-141.312-45.739-186.368-30.037-45.056-78.734-67.584-146.091-67.584s-116.281 22.528-146.773 67.584c-30.037 45.056-45.056 107.179-45.056 186.368zM2234.501 457.481c0 45.966-5.006 81.237-15.019 105.813-10.012 25.031-30.72 37.547-62.123 37.547s-52.11-12.516-62.123-37.547c-10.012-24.576-15.019-59.847-15.019-105.813 0-30.948 1.82-56.661 5.461-77.141 3.641-20.025 10.923-36.409 21.845-49.152 11.378-12.288 27.989-18.432 49.835-18.432s38.229 6.144 49.152 18.432c11.378 12.743 18.887 29.127 22.528 49.152 3.641 20.48 5.461 46.194 5.461 77.141zM2410.875 457.481c0 78.279 15.019 139.947 45.056 185.003 30.492 45.056 79.417 67.584 146.773 67.584s116.053-22.528 146.091-67.584c30.492-45.056 45.739-106.724 45.739-185.003 0-79.189-15.246-141.312-45.739-186.368-30.037-45.056-78.734-67.584-146.091-67.584s-116.281 22.528-146.773 67.584c-30.037 45.056-45.056 107.179-45.056 186.368zM2679.846 457.481c0 45.966-5.006 81.237-15.019 105.813-10.012 25.031-30.72 37.547-62.123 37.547s-52.11-12.516-62.123-37.547c-10.012-24.576-15.019-59.847-15.019-105.813 0-30.948 1.82-56.661 5.461-77.141 3.641-20.025 10.923-36.409 21.845-49.152 11.378-12.288 27.989-18.432 49.835-18.432s38.229 6.144 49.152 18.432c11.378 12.743 18.887 29.127 22.528 49.152 3.641 20.48 5.461 46.194 5.461 77.141zM2856.201 457.481c0 78.279 15.019 139.947 45.056 185.003 30.492 45.056 79.417 67.584 146.773 67.584s116.053-22.528 146.091-67.584c30.492-45.056 45.739-106.724 45.739-185.003 0-79.189-15.246-141.312-45.739-186.368-30.037-45.056-78.734-67.584-146.091-67.584s-116.281 22.528-146.773 67.584c-30.037 45.056-45.056 107.179-45.056 186.368zM3125.172 457.481c0 45.966-5.006 81.237-15.019 105.813-10.012 25.031-30.72 37.547-62.123 37.547s-52.11-12.516-62.123-37.547c-10.012-24.576-15.019-59.847-15.019-105.813 0-30.948 1.82-56.661 5.461-77.141 3.641-20.025 10.923-36.409 21.845-49.152 11.378-12.288 27.989-18.432 49.835-18.432s38.229 6.144 49.152 18.432c11.378 12.743 18.887 29.127 22.528 49.152 3.641 20.48 5.461 46.194 5.461 77.141zM3367.746 196.020c-20.48 0-37.319 5.916-50.517 17.749-12.743 12.288-19.115 27.307-19.115 45.056 0 18.204 6.372 33.451 19.115 45.739 13.198 12.288 30.037 18.432 50.517 18.432 20.025 0 36.409-6.144 49.152-18.432 13.198-12.288 19.797-27.534 19.797-45.739 0-17.749-6.599-32.768-19.797-45.056-12.743-11.833-29.127-17.749-49.152-17.749zM3934.53 201.481h-116.736l-195.243 295.595v-295.595h-116.736v479.232h116.736l195.243-296.96v296.96h116.736v-479.232zM4135.879 587.188v-96.939h156.331v-90.112h-156.331v-105.131h176.811v-93.525h-293.547v479.232h293.547v-93.525h-176.811zM4733.212 680.713v-93.525h-126.976v-385.707h-116.736v385.707h-126.976v93.525h370.688z"/>
            <glyph unicode="&#xe913;" horiz-adv-x="1034"
                   d="M137.818 960h758.024c0.188 0.001 0.411 0.001 0.634 0.001 75.544 0 136.826-61.061 137.184-136.521v-751.079c-0.358-75.494-61.64-136.555-137.184-136.555-0.223 0-0.445 0.001-0.668 0.002h-757.99c-0.188-0.001-0.41-0.001-0.633-0.001-75.597 0-136.913 61.147-137.185 136.681v750.919c0.358 75.494 61.64 136.555 137.184 136.555 0.223 0 0.445-0.001 0.668-0.002h-0.034z"/>
            <glyph unicode="&#xe914;" horiz-adv-x="1034"
                   d="M419.548 344.624l35.15 34.821c2.976-1.077 6.421-1.808 10.002-2.042l0.113-0.006c8.476 0.010 16.354 2.567 22.909 6.948l-0.15-0.095c6.707 4.46 11.929 10.674 15.071 17.992l0.101 0.265c1.972 4.601 3.119 9.955 3.119 15.577 0 11.257-4.597 21.44-12.016 28.774l-0.004 0.004c-7.457 7.381-17.719 11.942-29.046 11.942-14.152 0-26.641-7.119-34.082-17.971l-0.091-0.141c-4.333-6.34-6.921-14.17-6.929-22.605v-0.002c0.253-3.634 0.992-7.017 2.156-10.194l-0.082 0.256-35.15-34.821-149.956 148.515c-3.716 3.817-8.905 6.185-14.646 6.185-7.436 0-13.945-3.973-17.519-9.912l-0.051-0.092c-19.72-35.699-31.324-78.26-31.324-123.532 0-72.153 29.476-137.422 77.044-184.422l0.026-0.025c47.922-47.311 113.802-76.533 186.507-76.533 45.573 0 88.465 11.482 125.94 31.71l-1.409-0.695c2.759 1.589 5.039 3.714 6.757 6.251l0.045 0.071c2.104 3.105 3.359 6.934 3.359 11.057 0 5.731-2.426 10.896-6.307 14.524l-0.011 0.011zM445.443 784.63c-0.333 0.019-0.722 0.030-1.113 0.030-5.49 0-10.482-2.128-14.198-5.604l0.012 0.011c-3.973-3.703-6.461-8.954-6.499-14.786v-40.037c0-0.029 0-0.063 0-0.097 0-5.369 2.11-10.245 5.546-13.844l-0.007 0.008c3.486-3.647 8.295-6.003 13.654-6.294l0.052-0.002c83.686-5.099 158.227-40.554 213.527-95.383l-0.023 0.023c55.018-54.537 90.645-128.557 95.669-210.845l0.045-0.914c0.354-5.366 2.751-10.112 6.411-13.518l0.012-0.011c3.661-3.419 8.588-5.522 14.006-5.538h41.424c5.879 0.028 11.177 2.495 14.937 6.44l0.008 0.008c3.48 3.628 5.623 8.562 5.623 13.996 0 0.414-0.012 0.825-0.037 1.233l0.003-0.056c-6.019 104.669-50.803 197.845-120.077 266.291l-0.040 0.039c-69.614 68.832-163.608 113.135-267.882 118.807l-1.052 0.046z"/>
            <glyph unicode="&#xe915;" horiz-adv-x="1034"
                   d="M445.822 662.591c-0.443 0.033-0.959 0.053-1.479 0.053-5.468 0-10.445-2.106-14.162-5.552l0.013 0.012c-4.064-3.746-6.6-9.096-6.6-15.038 0-0.003 0-0.006 0-0.008v0-41.017c0.006-5.358 2.093-10.227 5.497-13.843l-0.010 0.010c3.435-3.646 8.171-6.034 13.462-6.419l0.067-0.004c49.805-4.485 93.857-26.092 126.884-58.81l-0.016 0.016c32.856-32.562 54.6-76.289 59.064-125.015l0.059-0.791c0.456-5.287 2.883-9.934 6.534-13.262l0.016-0.014c3.649-3.339 8.525-5.391 13.879-5.412h41.425c5.977 0.012 11.363 2.532 15.163 6.564l0.010 0.010c3.445 3.656 5.562 8.597 5.562 14.033 0 0.499-0.018 0.994-0.053 1.484l0.004-0.066c-5.834 70.786-36.728 133.416-83.676 179.846l-0.026 0.026c-47.164 46.676-110.305 77.287-180.496 82.903l-1.019 0.066z"/>
            <glyph unicode="&#xe916;" glyph-name="map-icon"
                   d="M512 469.312c-0.002 0-0.004 0-0.006 0-58.904 0-106.656 47.752-106.656 106.656s47.752 106.656 106.656 106.656c58.904 0 106.656-47.752 106.656-106.656 0-44.17-26.85-82.068-65.118-98.265l-0.7-0.263c-12.065-5.139-26.099-8.127-40.832-8.128v0zM512 874.656c-164.943 0-298.656-133.713-298.656-298.656v0c0-224 298.656-554.656 298.656-554.656s298.656 330.656 298.656 554.656c0 164.943-133.713 298.656-298.656 298.656v0z"/>
            <glyph unicode="&#xe917;" glyph-name="shipping-icon"
                   d="M853.312 618.688h-128v170.656h-597.312c-47.076-0.145-85.199-38.268-85.344-85.33v-469.326h85.344c0-70.692 57.308-128 128-128s128 57.308 128 128v0h256c0-70.692 57.308-128 128-128s128 57.308 128 128v0h85.344v213.312zM255.968 170.688c-35.346 0-64 28.654-64 64s28.654 64 64 64c35.346 0 64-28.654 64-64v0c0-35.335-28.636-63.982-63.966-64h-0.002zM831.968 554.688l83.616-106.656h-190.272v106.656zM767.968 170.688c-35.346 0-64 28.654-64 64s28.654 64 64 64c35.346 0 64-28.654 64-64v0c0-35.335-28.636-63.982-63.966-64h-0.002z"/>
        </font>
</defs>
</svg>
