<svg xmlns:xlink="http://www.w3.org/1999/xlink" xmlns="http://www.w3.org/2000/svg" width="24" height="26.667"
     viewBox="0 0 24 26.667">
    <defs>
        <linearGradient id="linear-gradient" y1="1" x2="1" gradientUnits="objectBoundingBox">
            <stop offset="0" stop-color="#fc2b4d"/>
            <stop offset="1" stop-color="#fa673c"/>
        </linearGradient>
    </defs>
    <path id="Vector"
          d="M8,12H5.333v2.667H8Zm5.333,0H10.667v2.667h2.667Zm5.333,0H16v2.667h2.667Zm2.667-9.333H20V0H17.333V2.667H6.667V0H4V2.667H2.667A2.655,2.655,0,0,0,.013,5.333L0,24a2.666,2.666,0,0,0,2.667,2.667H21.333A2.675,2.675,0,0,0,24,24V5.333A2.675,2.675,0,0,0,21.333,2.667Zm0,21.333H2.667V9.333H21.333Z"
          fill="url(#linear-gradient)"/>
</svg>
