<svg xmlns="http://www.w3.org/2000/svg" width="19.946" height="19.946" viewBox="0 0 19.946 19.946">
    <g id="Social_Media_Small_Dark_Instagram" data-name="Social Media / Small / Dark / Instagram"
       transform="translate(0 0)">
        <path id="Shape"
              d="M12.946,14.693H7a1.723,1.723,0,0,1-1.722-1.721V7.027A1.723,1.723,0,0,1,7,5.306h5.944a1.723,1.723,0,0,1,1.721,1.721v5.945A1.723,1.723,0,0,1,12.946,14.693ZM9.973,6.91A3.09,3.09,0,1,0,13.063,10,3.093,3.093,0,0,0,9.973,6.91Zm3.19-.823a.731.731,0,1,0,.732.731A.732.732,0,0,0,13.162,6.087Z"
              fill="#404040"/>
        <path id="Shape-2" data-name="Shape" d="M1.784,0A1.784,1.784,0,1,0,3.569,1.784,1.787,1.787,0,0,0,1.784,0Z"
              transform="translate(8.189 8.216)" fill="#404040"/>
        <path id="Shape-3" data-name="Shape"
              d="M9.973,19.946a9.973,9.973,0,1,1,9.973-9.973A9.984,9.984,0,0,1,9.973,19.946ZM7,4A3.03,3.03,0,0,0,3.974,7.027v5.945A3.03,3.03,0,0,0,7,16h5.944a3.03,3.03,0,0,0,3.027-3.027V7.027A3.03,3.03,0,0,0,12.946,4Z"
              fill="#404040"/>
    </g>
</svg>
