<svg xmlns="http://www.w3.org/2000/svg" width="122.886" height="38.241" viewBox="0 0 122.886 38.241">
  <g id="Group_205" data-name="Group 205" transform="translate(-163.714 -28.999)">
    <path id="Path_779" data-name="Path 779" d="M7.339-21.328,11.367-5.9l4.014-15.425h5.625V0H16.685V-5.771l.4-8.892L12.817,0H9.888L5.625-14.663l.4,8.892V0H1.714V-21.328ZM30.659.293a6.5,6.5,0,0,1-4.98-1.9,7.666,7.666,0,0,1-1.787-5.449V-8.32a9.012,9.012,0,0,1,1.641-5.786,5.689,5.689,0,0,1,4.7-2.036,5.384,5.384,0,0,1,4.5,1.909A9.107,9.107,0,0,1,36.27-8.581v2.033H28.022A4.314,4.314,0,0,0,28.8-3.966a2.624,2.624,0,0,0,2.124.817A4.661,4.661,0,0,0,34.395-4.57l1.626,2.5A5.355,5.355,0,0,1,33.809-.359,7.592,7.592,0,0,1,30.659.293ZM28.052-9.434H32.2v-.381a4.43,4.43,0,0,0-.469-2.153,1.63,1.63,0,0,0-1.523-.732,1.723,1.723,0,0,0-1.575.776A5.345,5.345,0,0,0,28.052-9.434ZM42.964,0H38.8V-22.5h4.16Zm2.651-8.408a10.348,10.348,0,0,1,1.318-5.815,4.365,4.365,0,0,1,3.838-1.919,3.7,3.7,0,0,1,3.047,1.582V-22.5h4.175V0H54.229l-.19-1.611a3.818,3.818,0,0,1-3.281,1.9,4.328,4.328,0,0,1-3.8-1.9,10.014,10.014,0,0,1-1.34-5.6Zm4.16,1.04a7.563,7.563,0,0,0,.5,3.274,1.755,1.755,0,0,0,1.685.93,2.021,2.021,0,0,0,1.86-1.1V-11.5a1.976,1.976,0,0,0-1.846-1.172,1.784,1.784,0,0,0-1.67.923,7.183,7.183,0,0,0-.527,3.281ZM65.391,0H61.23V-15.85h4.16Zm7-15.85.117,1.567a4.4,4.4,0,0,1,3.677-1.86q4.087,0,4.2,5.728V0H76.23V-10.107a3.642,3.642,0,0,0-.4-1.956,1.568,1.568,0,0,0-1.414-.608,1.936,1.936,0,0,0-1.758,1.157V0H68.5V-15.85ZM82.866-8.408q0-3.9,1.406-5.815a4.6,4.6,0,0,1,3.94-1.919,3.8,3.8,0,0,1,3.325,1.7L91.7-15.85h3.735V0a6.071,6.071,0,0,1-1.7,4.636,6.839,6.839,0,0,1-4.878,1.6,8.041,8.041,0,0,1-2.739-.52,5.071,5.071,0,0,1-2.139-1.326l1.392-2.871a4.383,4.383,0,0,0,1.523,1,4.641,4.641,0,0,0,1.772.388,2.6,2.6,0,0,0,2-.667A3.179,3.179,0,0,0,91.289.1V-1.26A3.712,3.712,0,0,1,88.2.293a4.508,4.508,0,0,1-3.918-1.97,9.716,9.716,0,0,1-1.414-5.559Zm4.146,1.04a6.76,6.76,0,0,0,.571,3.2,1.938,1.938,0,0,0,1.816,1,2.113,2.113,0,0,0,1.89-.923V-11.66a2.076,2.076,0,0,0-1.86-1.011A1.971,1.971,0,0,0,87.6-11.66a6.708,6.708,0,0,0-.593,3.252ZM104.854.293a6.5,6.5,0,0,1-4.98-1.9,7.666,7.666,0,0,1-1.787-5.449V-8.32a9.012,9.012,0,0,1,1.641-5.786,5.689,5.689,0,0,1,4.7-2.036,5.384,5.384,0,0,1,4.5,1.909,9.107,9.107,0,0,1,1.538,5.653v2.033h-8.247a4.314,4.314,0,0,0,.776,2.582,2.624,2.624,0,0,0,2.124.817,4.661,4.661,0,0,0,3.472-1.421l1.626,2.5A5.355,5.355,0,0,1,108-.359,7.592,7.592,0,0,1,104.854.293Zm-2.607-9.727h4.146v-.381a4.43,4.43,0,0,0-.469-2.153A1.63,1.63,0,0,0,104.4-12.7a1.723,1.723,0,0,0-1.575.776A5.345,5.345,0,0,0,102.246-9.434ZM116.6-15.85l.117,1.567a4.4,4.4,0,0,1,3.677-1.86q4.087,0,4.2,5.728V0h-4.16V-10.107a3.642,3.642,0,0,0-.4-1.956,1.568,1.568,0,0,0-1.414-.608,1.936,1.936,0,0,0-1.758,1.157V0h-4.16V-15.85Z" transform="translate(162 61)" fill="#fff"/>
    <g id="Group_204" data-name="Group 204" transform="translate(-91 -44.581)">
      <path id="satellite-dish-solid_1_" data-name="satellite-dish-solid (1)" d="M5.264,9.625l.764-.764a.816.816,0,0,0,.218.045.893.893,0,1,0-.893-.893.816.816,0,0,0,.045.218l-.764.764L1.375,5.737a.442.442,0,0,0-.7.084,5.727,5.727,0,0,0,7.755,7.755.439.439,0,0,0,.084-.7ZM5.827-.024a.449.449,0,0,0-.474.446V1.3a.442.442,0,0,0,.418.444,7.164,7.164,0,0,1,6.72,6.737.446.446,0,0,0,.444.418h.9a.449.449,0,0,0,.446-.474A8.948,8.948,0,0,0,5.827-.024Z" transform="translate(312.456 73.604)" fill="#669e97"/>
      <path id="satellite-dish-solid_1_2" data-name="satellite-dish-solid (1)" d="M39.662,19.563a.45.45,0,0,0-.483.449v.9a.445.445,0,0,0,.413.444,4.455,4.455,0,0,1,4.042,4.05.448.448,0,0,0,.444.41h.9a.452.452,0,0,0,.449-.483,6.276,6.276,0,0,0-5.763-5.766Z" transform="translate(278.629 56.695)" fill="#669e97"/>
    </g>
  </g>
</svg>
