<svg xmlns:xlink="http://www.w3.org/1999/xlink" xmlns="http://www.w3.org/2000/svg" width="40.876" height="40.494"
     viewBox="0 0 40.876 40.494">
    <defs>
        <linearGradient id="linear-gradient" x1="0.5" x2="0.5" y2="1" gradientUnits="objectBoundingBox">
            <stop offset="0" stop-color="#f95e2e"/>
            <stop offset="1" stop-color="#fc274f"/>
        </linearGradient>
    </defs>
    <g id="Logo_icon_omlijning" transform="translate(-348 -54.485)">
        <path id="ecmj92gyebgp3"
              d="M5.45,0H35.426a5.425,5.425,0,0,1,5.45,5.4v29.7a5.425,5.425,0,0,1-5.45,5.4H5.45A5.425,5.425,0,0,1,0,35.094V5.4A5.425,5.425,0,0,1,5.45,0Z"
              transform="translate(348 54.485)" fill="url(#linear-gradient)"/>
        <g id="Logo_P2000">
            <path id="satellite-dish-solid_1_" data-name="satellite-dish-solid (1)"
                  d="M9.591,17.4l1.39-1.377a1.5,1.5,0,0,0,.4.081,1.636,1.636,0,0,0,.9-.271,1.613,1.613,0,0,0,.6-.722,1.6,1.6,0,0,0-.352-1.754,1.633,1.633,0,0,0-2.5.244,1.6,1.6,0,0,0-.274.894,1.459,1.459,0,0,0,.082.393l-1.39,1.377-5.93-5.873a.808.808,0,0,0-1.274.151A10.252,10.252,0,0,0,3.052,22.722a10.5,10.5,0,0,0,12.3,1.8.8.8,0,0,0,.269-.25.786.786,0,0,0-.117-1.012ZM10.615,0A.822.822,0,0,0,10.01.22a.806.806,0,0,0-.257.585V2.388a.793.793,0,0,0,.219.551.808.808,0,0,0,.542.249,13.092,13.092,0,0,1,8.443,3.771,12.859,12.859,0,0,1,3.785,8.374.8.8,0,0,0,.254.535.816.816,0,0,0,.554.219h1.638a.821.821,0,0,0,.591-.255.8.8,0,0,0,.221-.6A16.062,16.062,0,0,0,21.25,4.7,16.353,16.353,0,0,0,10.615,0Z"
                  transform="translate(355 61.42)" fill="#fff"/>
            <path id="satellite-dish-solid_1_2" data-name="satellite-dish-solid (1)"
                  d="M.879,0A.824.824,0,0,0,.261.217.808.808,0,0,0,0,.812V2.434a.8.8,0,0,0,.217.547.813.813,0,0,0,.535.254A8.139,8.139,0,0,1,5.769,5.56a8,8,0,0,1,2.338,4.975.8.8,0,0,0,.259.525.819.819,0,0,0,.549.214h1.638a.826.826,0,0,0,.6-.26.81.81,0,0,0,.218-.611A11.268,11.268,0,0,0,8.061,3.29,11.467,11.467,0,0,0,.883.009Z"
                  transform="translate(364.751 66.246)" fill="#fff"/>
        </g>
    </g>
</svg>
