<svg xmlns="http://www.w3.org/2000/svg" width="551.603" height="390.004" viewBox="0 0 551.603 390.004">
    <g id="police-car_3_" data-name="police-car (3)" transform="translate(0 -58)">
        <g id="Group_202" data-name="Group 202" transform="translate(10.773 133.414)">
            <path id="Path_718" data-name="Path 718"
                  d="M272.154,160H152.32c-11.851,0-19.872,9.814-21.547,21.543L120,256.965v64.641a53.866,53.866,0,0,1,53.867,53.867H369.945V256.965l-32.32-75.419C332.776,170.239,325.066,160,307.66,160ZM245.224,192.32h61.792c.358.7.682,1.452.9,1.961l26.866,62.684H152.648l9.233-64.645Zm0,0"
                  transform="translate(-1.492 -125.525)" fill="#ebebeb" fill-rule="evenodd"/>
            <path id="Path_719" data-name="Path 719"
                  d="M298.026,190H236.234v64.645h89.559l-26.866-62.684c-.219-.509-.543-1.258-.9-1.961Zm0,0"
                  transform="translate(7.499 -123.204)" fill="#b0e7f8" fill-rule="evenodd"/>
            <path id="Path_720" data-name="Path 720" d="M242.88,254.645V190H159.537L150.3,254.645Zm0,0"
                  transform="translate(0.852 -123.204)" fill="#b0e7f8" fill-rule="evenodd"/>
            <path id="Path_721" data-name="Path 721"
                  d="M127.348,314.645V250l-80.805,1.347C34.671,251.544,25,262.259,25,275.591v60.6H84.25A53.771,53.771,0,0,1,127.348,314.645Zm0,0"
                  transform="translate(-8.84 -118.563)" fill="#0095ff" fill-rule="evenodd"/>
            <path id="Path_722" data-name="Path 722"
                  d="M352,250v118.5a53.87,53.87,0,0,1,96.965-32.32h48.476v-60.6c0-13.332-9.684-24.11-21.547-24.24Zm0,0"
                  transform="translate(16.453 -118.563)" fill="#0095ff" fill-rule="evenodd"/>
            <path id="Path_723" data-name="Path 723"
                  d="M74.641,362.32A53.628,53.628,0,0,1,85.41,330H10v16.16a16.208,16.208,0,0,0,16.16,16.16Zm0,0"
                  transform="translate(-10 -112.376)" fill="#fff" fill-rule="evenodd"/>
            <path id="Path_724" data-name="Path 724"
                  d="M80.769,331.551a53.867,53.867,0,0,0,42.568,86.179l.53,0a53.867,53.867,0,1,0-43.1-86.184Zm21.555,32.316a21.543,21.543,0,1,1,21.543,21.543A21.543,21.543,0,0,1,102.325,363.867Zm0,0"
                  transform="translate(-5.359 -113.923)" fill="#b3b0b5" fill-rule="evenodd"/>
            <path id="Path_725" data-name="Path 725"
                  d="M143.089,361.546a21.543,21.543,0,1,1-21.543-21.539A21.544,21.544,0,0,1,143.089,361.546Zm0,0"
                  transform="translate(-3.038 -111.602)" fill="#ebebeb" fill-rule="evenodd"/>
            <path id="Path_726" data-name="Path 726"
                  d="M425.085,361.546a21.541,21.541,0,1,1-21.539-21.539A21.54,21.54,0,0,1,425.085,361.546Zm0,0"
                  transform="translate(18.773 -111.602)" fill="#ebebeb" fill-rule="evenodd"/>
            <path id="Path_727" data-name="Path 727"
                  d="M405.867,342.329a21.541,21.541,0,1,1-21.543,21.539A21.542,21.542,0,0,1,405.867,342.329Zm0-32.325a53.859,53.859,0,1,0,43.1,21.547A53.866,53.866,0,0,0,405.867,310Zm0,0"
                  transform="translate(16.453 -113.922)" fill="#b3b0b5" fill-rule="evenodd"/>
            <path id="Path_728" data-name="Path 728"
                  d="M442,330a53.619,53.619,0,0,1,10.769,32.32H490.48a16.209,16.209,0,0,0,16.16-16.164V330Zm0,0"
                  transform="translate(23.414 -112.376)" fill="#ff5a58" fill-rule="evenodd"/>
            <path id="Path_729" data-name="Path 729"
                  d="M236.23,162.475H290.1V145.238A17.287,17.287,0,0,0,272.86,128H253.468a17.287,17.287,0,0,0-17.238,17.238Zm0,0"
                  transform="translate(7.498 -128)" fill="#ff5a58" fill-rule="evenodd"/>
        </g>
        <path id="Path_730" data-name="Path 730"
              d="M524.665,335.624h-5.387V285.8c0-19.11-14.447-34.82-32.2-35.014L370.2,249.512l-29.556-68.959c-2.9-6.759-11.556-26.942-37.665-28.024v-6.519A28.044,28.044,0,0,0,274.97,118H255.582a28.041,28.041,0,0,0-28.011,28.011v6.464h-7.832a10.773,10.773,0,1,0,0,21.547H300.78c9.932,0,15.369,4.07,20.061,15.02l31.449,73.382V367.945H329.628a10.773,10.773,0,1,0,0,21.547H352.29c.3,0,.606-.021.9-.042a64.63,64.63,0,0,0,127.464.042h27.847a26.964,26.964,0,0,0,26.934-26.934V346.4a10.773,10.773,0,0,0-10.773-10.773ZM249.112,146.011a6.554,6.554,0,0,1,6.464-6.464h19.392a6.551,6.551,0,0,1,6.464,6.464v6.464h-32.32ZM497.732,285.8v6.738h-7.125a10.773,10.773,0,0,0,0,21.547h7.125v21.547h-32.67a64.506,64.506,0,0,0-91.225-5.037V271.1l113,1.229c6.005.067,10.891,6.106,10.891,13.467Zm-80.8,136.019a43.144,43.144,0,0,1-43.094-43.077v-.08a43.094,43.094,0,0,1,86.188.046v.029a43.147,43.147,0,0,1-43.094,43.081Zm96.961-59.258a5.458,5.458,0,0,1-5.387,5.387H480.658a64.36,64.36,0,0,0-2.794-10.773h36.028Zm0,0"
              transform="translate(16.163 4.641)"/>
        <path id="Path_733" data-name="Path 733"
              d="M271.492,365.469H265.28V268.508h78.785a10.771,10.771,0,0,0,9.9-15.016L327.1,190.809c-.3-.715-.715-1.654-1.2-2.605a10.775,10.775,0,0,0-9.6-5.883H171.163a10.773,10.773,0,0,0-10.664,9.25l-9.233,64.645a10.773,10.773,0,0,0,10.664,12.3h81.8v96.961H193.922c-.307,0-.606.017-.9.042a64.782,64.782,0,0,0-52.963-53V258.5l10.664-74.657c.875-6.119,4.579-12.3,10.883-12.3a10.773,10.773,0,1,0,0-21.547c-16.379,0-29.623,12.667-32.211,30.8l-9.473,66.32L48.3,248.308c-17.726.295-32.144,16-32.144,35.014v49.827H10.773A10.773,10.773,0,0,0,0,343.922v16.16a26.964,26.964,0,0,0,26.934,26.934H65.558a64.628,64.628,0,0,0,127.459-.042c.3.021.6.042.9.042h77.569a10.773,10.773,0,0,0,0-21.547Zm56.232-118.508H265.28V203.867h43.978Zm-153.374,0,6.157-43.094h63.227v43.094ZM37.707,311.606h7.125a10.773,10.773,0,0,0,0-21.547H37.707v-6.738c0-7.327,4.911-13.366,10.95-13.467l69.851-1.161V312.52a64.574,64.574,0,0,0-37.354,20.634H37.707Zm-16.16,48.476V354.7h46.8a64.362,64.362,0,0,0-2.794,10.773H26.934a5.458,5.458,0,0,1-5.387-5.387Zm107.735,59.258a43.1,43.1,0,0,1-.013-86.192s.008,0,.013,0,.008,0,.013,0a43.1,43.1,0,0,1-.013,86.192Zm0,0"
              transform="translate(0 7.116)"/>
        <path id="Path_734" data-name="Path 734"
              d="M293.028,350h-.29a10.773,10.773,0,1,0,0,21.547h.29a10.773,10.773,0,0,0,0-21.547Zm0,0"
              transform="translate(21.809 22.585)"/>
        <path id="Path_738" data-name="Path 738"
              d="M179.794,150h-.29a10.773,10.773,0,1,0,0,21.547h.29a10.773,10.773,0,0,0,0-21.547Zm0,0"
              transform="translate(13.051 7.116)"/>
        <path id="Path_779" data-name="Path 779"
              d="M105.728,336.355a25.728,25.728,0,1,0,25.728,25.728A25.76,25.76,0,0,0,105.728,336.355Zm0,34.307a8.576,8.576,0,1,1,8.576-8.576A8.588,8.588,0,0,1,105.728,370.662Zm0,0"
              transform="translate(24.503 20.991)"/>
        <path id="Path_780" data-name="Path 780"
              d="M397.728,336.355a25.728,25.728,0,1,0,25.728,25.728A25.758,25.758,0,0,0,397.728,336.355Zm0,34.307a8.576,8.576,0,1,1,8.576-8.576A8.586,8.586,0,0,1,397.728,370.662Zm0,0"
              transform="translate(35.753 20.991)"/>
        <path id="Path_797" data-name="Path 797"
              d="M286.043,47.992A10.763,10.763,0,0,0,296.8,37.227V10.765a10.763,10.763,0,1,0-21.526,0V37.232a10.765,10.765,0,0,0,10.765,10.761Zm0,0"
              transform="translate(-4.565 58)" fill="#ff5a58"/>
        <path id="Path_798" data-name="Path 798"
              d="M315.641,43.01a10.758,10.758,0,0,0,15.175-1.178l16.034-18.744A10.763,10.763,0,1,0,330.493,9.095l-16.034,18.74a10.761,10.761,0,0,0,1.183,15.175Zm0,0"
              transform="translate(-1.734 58.412)" fill="#0095ff"/>
        <path id="Path_799" data-name="Path 799"
              d="M240.407,41.832a10.765,10.765,0,0,0,16.358-14L240.731,9.095a10.763,10.763,0,1,0-16.358,13.993Zm0,0"
              transform="translate(-8.702 58.412)" fill="#0095ff"/>
    </g>
</svg>
