<svg xmlns="http://www.w3.org/2000/svg" width="512" height="360.004" viewBox="0 0 512 360.004">
  <g id="helicopter_7_" data-name="helicopter (7)" transform="translate(0)">
    <g id="Group_208" data-name="Group 208" transform="translate(9.998 10)">
      <path id="Path_817" data-name="Path 817" d="M390,50H230a20,20,0,1,1,0-40H410a20,20,0,1,0,0,40Zm0,0" transform="translate(-117.996 -10)" fill="#7cd556" fill-rule="evenodd"/>
      <path id="Path_818" data-name="Path 818" d="M190,30a20,20,0,1,0,20-20A20,20,0,0,0,190,30Zm0,0" transform="translate(82.001 -10)" fill="#fff" fill-rule="evenodd"/>
      <path id="Path_819" data-name="Path 819" d="M30,30A20,20,0,0,0,10,10H190a20,20,0,1,1,0,40H10A20,20,0,0,0,30,30Zm0,0" transform="translate(282.001 -10)" fill="#7cd556" fill-rule="evenodd"/>
      <path id="Path_820" data-name="Path 820" d="M210,50h20V90H190V50Zm0,0" transform="translate(82.005 -10)" fill="#fff" fill-rule="evenodd"/>
      <path id="Path_821" data-name="Path 821" d="M70,90h40l80.828,140H290a40.118,40.118,0,0,1-40,40H163.922L94.641,150H10A60.176,60.176,0,0,1,70,90Zm0,0" transform="translate(202.001 -10)" fill="#fff" fill-rule="evenodd"/>
      <path id="Path_822" data-name="Path 822" d="M136.078,150h84.641L290,270H176.078a40.118,40.118,0,0,1-40-40Zm0,0" transform="translate(75.922 -10)" fill="#7cd556" fill-rule="evenodd"/>
      <path id="Path_823" data-name="Path 823" d="M502,150v60l-152.9-16.406L336.9,224.84H294.035L315.457,170,290,104.84h42.863L350.508,150Zm0,0" transform="translate(-290 -10)" fill="#7cd556" fill-rule="evenodd"/>
      <path id="Path_824" data-name="Path 824" d="M90.828,230,10,90H50c77,0,140,63,140,140Zm0,0" transform="translate(302.005 -10)" fill="#b0e7f8" fill-rule="evenodd"/>
    </g>
    <path id="Path_825" data-name="Path 825" d="M1.741,99.2A9.993,9.993,0,0,1,10,94.84H52.862a10,10,0,0,1,9.316,6.359L77.339,140H212.726A70.15,70.15,0,0,1,272,80.727V60H122a30,30,0,0,1,0-60H372a10,10,0,0,1,0,20H330.28a29.887,29.887,0,0,1,0,20H482a10,10,0,0,0,0-20H462a10,10,0,0,1,0-20h20a30,30,0,1,1,0,60H332V80h30c82.711,0,150,67.289,150,150a50.059,50.059,0,0,1-50,50H432v60h30a30.033,30.033,0,0,0,30-30,10,10,0,1,1,20,0,50.056,50.056,0,0,1-50,50H179.6a10,10,0,1,1,0-20H252V279A50.085,50.085,0,0,1,212,230v-11.02l-35.344-3.793a10,10,0,1,1,2.133-19.883L212,198.871V160H70.508a9.995,9.995,0,0,1-9.312-6.359l-15.16-38.8H24.644l20.129,51.52a10.01,10.01,0,0,1,0,7.281l-16.1,41.2H50.07l9.719-24.883a9.994,9.994,0,0,1,10.383-6.3L89.3,185.7a10,10,0,1,1-2.133,19.887l-11.531-1.238-9.426,24.125A10,10,0,0,1,56.9,234.84H14.031A10,10,0,0,1,4.718,221.2l20-51.2L.683,108.477A10.006,10.006,0,0,1,1.742,99.2ZM112,30a10.009,10.009,0,0,0,10,10H273.722a29.886,29.886,0,0,1,0-20H122A10.009,10.009,0,0,0,112,30Zm180,0a10,10,0,1,0,10-10A10.012,10.012,0,0,0,292,30Zm20,30H292V80h20Zm50,40h-22.68L408.6,220h83.012C486.5,152.973,430.316,100,362,100ZM490.28,240H402.831a10,10,0,0,1-8.66-5L316.229,100H282a50.085,50.085,0,0,0-48.992,40h73.633a10,10,0,0,1,8.66,5l66.395,115H462a30.049,30.049,0,0,0,28.281-20ZM412,340V280H272v60ZM232,210.031V230a30.035,30.035,0,0,0,30,30h96.6L300.866,160H232Zm0,0" transform="translate(0 0)"/>
    <path id="Path_826" data-name="Path 826" d="M95,20A10,10,0,1,1,95,0h.008A10,10,0,0,1,95,20Zm0,0" transform="translate(321.995)"/>
    <path id="Path_827" data-name="Path 827" d="M379.687,190.473h.008a10,10,0,0,1-.664,19.977c-.223,0-.449-.008-.676-.023a10,10,0,1,1,1.332-19.953Zm0,0" transform="translate(-246.047 0)"/>
    <path id="Path_828" data-name="Path 828" d="M147.4,191.162v-9.083a5.262,5.262,0,0,0-5.242-5.24H132.55v-9.6a5.248,5.248,0,0,0-5.242-5.24h-9.076a5.248,5.248,0,0,0-5.242,5.24v9.6h-9.613a5.253,5.253,0,0,0-5.23,5.24v9.083a5.253,5.253,0,0,0,5.23,5.24h9.613V206a5.255,5.255,0,0,0,5.242,5.24h9.076A5.255,5.255,0,0,0,132.55,206v-9.6h9.613A5.262,5.262,0,0,0,147.4,191.162Zm0,0" transform="translate(156.22 28.402)" fill="#fff" fill-rule="evenodd"/>
    <path id="Path_829" data-name="Path 829" d="M88.16,176.4v9.083a9.561,9.561,0,0,0,9.545,9.555H103v5.282a9.568,9.568,0,0,0,9.559,9.555h9.074a9.566,9.566,0,0,0,9.557-9.555v-5.282h5.3a9.568,9.568,0,0,0,9.559-9.555V176.4a9.568,9.568,0,0,0-9.559-9.555h-5.3v-5.282a9.566,9.566,0,0,0-9.557-9.555h-9.074A9.568,9.568,0,0,0,103,161.567v5.282h-5.3A9.561,9.561,0,0,0,88.16,176.4Zm8.632,0a.931.931,0,0,1,.913-.923h9.613a4.316,4.316,0,0,0,4.317-4.317v-9.6a.926.926,0,0,1,.926-.923h9.074a.926.926,0,0,1,.925.923v9.6a4.317,4.317,0,0,0,4.317,4.317h9.614a.947.947,0,0,1,.925.923v9.083a.949.949,0,0,1-.925.923h-9.614a4.317,4.317,0,0,0-4.317,4.317v9.6a.936.936,0,0,1-.925.923h-9.074a.936.936,0,0,1-.926-.923v-9.6a4.316,4.316,0,0,0-4.317-4.317H97.705a.93.93,0,0,1-.913-.923Zm0,0" transform="translate(161.893 34.078)"/>
  </g>
</svg>
